# xmcd
#
# Track frame offsets: 
#        150
#        14160
#        29270
#        48814
#        63240
#        75445
#        90455
#        107565
#        120925
#        131022
#        133837
#        174252
#
# Disc length: 2874 seconds
#
# Revision: 12
# Processed by: cddbd v1.5.2PL0 Copyright (c) Steve Scherf et al.
# Submitted via: ExactAudioCopy v0.99pb4
#
DISCID=8e0b380c
DTITLE=Rory Block - Confessions of a Blues Singer
DYEAR=1998
DGENRE=Blues
TTITLE0=If I Had Possession over Judgement Day
TTITLE1=Ramblin' on My Mind
TTITLE2=Kassie Jones
TTITLE3=I Am in the Heavenly Way
TTITLE4=Statesboro Blues
TTITLE5=Long Way from Home
TTITLE6=Bo Weavil Blues
TTITLE7=I'll Go with Him
TTITLE8=Titanic (When That Great Ship Went Down)
TTITLE9=Silver Slide Moan
TTITLE10=Mother Marian
TTITLE11=Life Song
EXTD=
EXTT0=
EXTT1=
EXTT2=
EXTT3=
EXTT4=
EXTT5=
EXTT6=
EXTT7=
EXTT8=
EXTT9=
EXTT10=
EXTT11=
PLAYORDER=
